# xmcd
#
# Track frame offsets:
# 150
# 20791
# 39130
# 60033
# 69847
# 89963
# 104565
# 122420
# 132573
# 150547
# 165845
# 189191
# 209502
# 231054
# 249857
# 279075
# 289771
# 305096
#
# Disc length: 4321 seconds
#
#
# Revision: 1
# Processed by: cddbd v1.4PL0 Copyright (c) Steve Scherf et al.
# Submitted via: FreeRIP 2.00 
#
DISCID=eb10df12
DTITLE=Moby - 18
DYEAR=2002
DGENRE=Electronic
TTITLE0=We are all made of stars
TTITLE1=In this world
TTITLE2=In my heart
TTITLE3=Great escape
TTITLE4=Signs of love
TTITLE5=One of these mornings
TTITLE6=Another woman
TTITLE7=Fireworks
TTITLE8=Extreme ways
TTITLE9=Jam for the ladies
TTITLE10=The day before my birthday
TTITLE11=18
TTITLE12=Sleep alone
TTITLE13=At least we tried
TTITLE14=Harbour
TTITLE15=Look back in
TTITLE16=The rafters
TTITLE17=I'm not worried at all
EXTD=
EXTT0=
EXTT1=
EXTT2=
EXTT3=
EXTT4=
EXTT5=
EXTT6=
EXTT7=
EXTT8=
EXTT9=
EXTT10=
EXTT11=
EXTT12=
EXTT13=
EXTT14=
EXTT15=
EXTT16=
EXTT17=
PLAYORDER=
